<svg width="70" height="64" viewBox="0 0 70 64" fill="none" xmlns="http://www.w3.org/2000/svg">
<path d="M27.5235 0.0355206C28.3988 0.0126858 29.2412 0 30.0581 0C45.4843 0 54.0397 5.09468 55.7092 15.2739C56.0288 17.4077 56.1963 19.3968 56.1963 21.2465C56.1963 28.7692 53.3521 34.0314 47.6891 37.0405C41.5998 40.2627 36.1956 41.8738 31.4815 41.8738C30.6645 41.8738 29.8932 41.8256 29.1473 41.7318C29.9643 50.4521 30.3677 55.1789 30.3677 55.8893C29.3731 61.0322 26.8029 63.6024 22.6673 63.6024H21.8605C16.7911 63.6024 13.815 58.7335 12.9397 49.016C12.1582 41.7292 11.7675 36.1956 11.7675 32.4304C11.7675 28.4724 11.8868 24.0171 12.1455 19.0645L10.131 19.478H6.06643C3.24761 19.478 1.22039 17.1793 0 12.5693V11.3489C0 5.75689 6.46984 2.25049 19.4324 0.839812C20.843 0.555647 23.5426 0.294314 27.5235 0.0355206ZM28.3531 26.2777C33.5671 24.5474 36.1626 22.8779 36.1626 21.2769V21.1703C36.0434 19.5364 33.5798 18.4809 28.7337 18.0191L28.3531 26.2777Z" fill="#027A8F"/>
<path d="M69.5767 41.2322C68.9849 38.128 67.5026 36.8439 65.1732 37.4887C61.7624 38.1704 58.3534 38.852 54.9425 39.5355C54.1938 35.9817 53.4564 32.4869 52.6661 29.0235C52.3333 26.5677 50.2025 25.8124 46.3095 26.8312C43.1123 27.3507 41.8644 28.8411 42.4676 31.1218C43.1993 34.5982 43.9366 38.093 44.6721 41.5896C41.7736 42.1681 38.8374 42.7558 35.971 43.3895C35.9124 43.4024 35.9124 43.4024 35.8538 43.4135C34.9028 43.4835 34.069 43.8114 33.4034 44.3641C33.0366 44.6773 32.7114 45.0826 32.4543 45.615C32.2123 46.1234 32.0723 46.6319 32.0005 47.1662C31.9835 49.3308 32.3994 51.0092 33.377 52.2343C34.3507 53.441 35.5948 53.8923 37.0468 53.662C40.3386 53.0043 43.5717 52.3559 46.8049 51.7092C47.3626 54.3603 47.9053 56.9339 48.5103 59.5149C48.5216 59.572 48.5349 59.631 48.5462 59.6881C48.6067 60.5577 48.9622 61.3664 49.5218 62.0739C49.8395 62.411 50.2668 62.6855 50.7924 62.9416C51.3142 63.1774 51.8493 63.3708 52.3863 63.3837C54.64 63.4537 56.3492 62.9913 57.5877 62.0425C58.8374 61.1527 59.3006 59.9387 59.053 58.4667C58.4252 55.4896 57.7956 52.494 57.1679 49.5169C60.5788 48.8353 63.9291 48.1647 67.3268 47.4241C69.8471 47.0999 70.558 45.0162 69.5748 41.2304L69.5767 41.2322Z" fill="#1DC81D"/>
</svg>
