<svg width="432" height="86" viewBox="0 0 432 86" fill="none" xmlns="http://www.w3.org/2000/svg">
<path d="M27.5235 21.6449C28.3988 21.6221 29.2412 21.6094 30.0581 21.6094C45.4843 21.6094 54.0397 26.7041 55.7092 36.8833C56.0288 39.0171 56.1963 41.0062 56.1963 42.8558C56.1963 50.3786 53.3521 55.6408 47.6891 58.6499C41.5998 61.8721 36.1956 63.4832 31.4815 63.4832C30.6645 63.4832 29.8932 63.435 29.1473 63.3411C29.9643 72.0615 30.3677 76.7883 30.3677 77.4987C29.3731 82.6416 26.8029 85.2118 22.6673 85.2118H21.8605C16.7911 85.2118 13.815 80.3429 12.9397 70.6254C12.1582 63.3386 11.7675 57.805 11.7675 54.0398C11.7675 50.0818 11.8868 45.6265 12.1455 40.6738L10.131 41.0874H6.06643C3.24761 41.0874 1.22039 38.7887 0 34.1786V32.9582C0 27.3663 6.46984 23.8599 19.4324 22.4492C20.843 22.165 23.5426 21.9037 27.5235 21.6449ZM28.3531 47.8871C33.5671 46.1567 36.1626 44.4873 36.1626 42.8863V42.7797C36.0434 41.1458 33.5798 40.0903 28.7337 39.6285L28.3531 47.8871ZM69.0041 22.8627H70.5923C74.5504 22.8627 76.9785 25.5522 77.8893 30.9437C76.2655 50.2441 75.4485 61.3114 75.4485 64.1302L76.6689 64.9726C83.7299 63.8816 87.9112 63.3386 89.2407 63.3386C94.6322 64.3332 97.3217 67.0226 97.3217 71.4196C97.3217 76.4889 94.0868 79.2037 87.6068 79.5462C80.7107 80.6118 76.3974 81.1446 74.6569 81.1446C67.809 81.1446 63.0924 78.5846 60.4994 73.4671C59.9437 71.5946 59.6697 69.9708 59.6697 68.6084V63.3361C60.7962 37.9692 62.146 25.2908 63.7216 25.2908C65.5103 23.667 67.2661 22.8627 69.0066 22.8627H69.0041ZM129.156 27.7215H131.965C139.607 27.7215 147.178 37.7079 154.665 57.673C157.093 65.5637 158.313 71.5008 158.313 75.4816V75.8952C158.313 80.0181 155.598 82.4462 150.187 83.1922C146.584 83.1922 143.884 80.622 142.106 75.4791L141.299 75.0655H134.819C122.389 75.7176 116.17 76.6639 116.17 77.9097C115.531 81.3096 113.517 83.3368 110.14 83.9888H106.869C103.492 83.3139 101.467 81.2867 100.803 77.9097V74.6875C100.803 71.9042 105.258 61.2403 114.156 42.6858C119.416 32.7096 124.416 27.7215 129.156 27.7215ZM120.897 60.1367C125.411 59.5201 130.247 59.2004 135.4 59.2004C136.349 59.2004 137.331 59.2131 138.325 59.236C136.856 54.3062 133.954 49.521 129.605 44.8653C126.418 49.3561 123.513 54.4508 120.897 60.1367ZM206.629 22.9338C210.93 24.2252 213.667 29.5812 214.852 38.9993C215.824 46.9839 216.308 54.5904 216.308 61.8061C216.308 63.0722 216.296 64.3408 216.273 65.584C216.072 73.9136 213.025 78.6988 207.149 79.9217C201.983 79.9217 196.178 75.6085 189.721 66.9719C182.541 58.594 178.763 54.4128 178.372 54.4128H177.992L177.565 55.2424V73.4645C177.565 76.8415 175.683 79.2823 171.915 80.7615H167.851C163.799 79.4828 161.784 77.0547 161.784 73.4645V53.1924C161.784 41.9729 163.395 35.2316 166.643 32.9557C168.515 31.6161 170.269 30.9412 171.915 30.9412H173.552C178.728 30.9412 186.585 37.8728 197.117 51.7335C197.627 51.9948 198.028 52.1141 198.325 52.1141L198.716 51.3199C197.411 44.198 196.772 38.5248 196.772 34.3182C196.772 29.1296 197.756 26.1433 199.723 25.3619C200.826 23.7381 203.135 22.9338 206.632 22.9338H206.629ZM255.361 25.8135C261.712 26.5239 265.928 28.9165 268.039 32.9582C268.869 34.6049 269.283 36.0968 269.283 37.4364C269.283 39.4509 268.346 41.1458 266.474 42.5057C264.556 43.891 262.671 44.5913 260.811 44.5913C259.661 44.5913 258.512 44.3071 257.375 43.7489C255.645 42.8964 253.714 42.4702 251.583 42.4702C250.127 42.4702 248.574 42.6706 246.937 43.0639C242.886 44.0585 240.858 45.2789 240.858 46.7352C240.858 47.2223 241.569 47.471 243.002 47.471C243.796 47.471 244.791 47.3873 245.989 47.2223C246.712 47.164 247.387 47.1285 248.003 47.1285C250.431 47.1285 252.339 47.7323 253.702 48.9654C255.087 50.234 255.787 52.1166 255.787 54.5929C255.787 55.1156 255.752 55.6839 255.681 56.2877C255.313 59.6165 252.956 62.0573 248.632 63.6101C241.546 65.2339 238.017 66.7613 238.017 68.1973C238.1 68.7301 238.372 68.9915 238.811 68.9915H239.64C246.937 68.9915 255.031 66.028 263.942 60.1062C264.665 59.9743 265.34 59.9058 265.992 59.9058C269.879 59.9058 272.223 62.547 273.04 67.8548C273.124 68.4713 273.169 69.0752 273.169 69.6562C273.169 74.9513 269.237 78.9322 261.369 81.5988C253.988 84.0979 246.879 85.3437 240.019 85.3437C238.775 85.3437 237.542 85.2955 236.309 85.2143C228.299 84.6815 222.933 80.6296 220.208 73.0586C219.924 71.6022 219.795 69.9784 219.795 68.2024C219.795 64.1733 221.548 60.2635 225.067 56.473C223.172 53.37 222.223 49.993 222.223 46.3318C222.223 38.8801 226.155 33.4175 234.023 29.9466C240.539 27.0796 246.557 25.6461 252.068 25.6461C253.181 25.6461 254.283 25.7044 255.361 25.8237V25.8135ZM299.447 28.0995H313.64C318.403 28.0995 321.65 30.5276 323.355 35.3863C324.172 40.6231 324.576 46.5601 324.576 53.1949C324.576 66.6649 319.575 75.4461 309.576 79.5437C307.409 80.3505 305.108 80.7641 302.705 80.7641H299.861C293.452 80.4088 288.083 78.4171 283.76 74.7915C279.873 71.5464 277.929 68.4536 277.929 65.5155C277.929 65.1958 277.942 64.8761 277.988 64.5438C278.982 59.4136 281.413 56.8434 285.285 56.8434H286.495C288.923 56.8434 291.897 58.7387 295.416 62.5292C297.311 64.1048 299.219 64.899 301.14 64.899C301.908 64.899 302.667 64.767 303.438 64.5083C306.092 63.6558 307.833 61.5118 308.639 58.0866C308.995 56.6759 309.162 55.0648 309.162 53.2279C309.162 50.6577 308.83 47.6943 308.155 44.3071H300.655C294.457 43.5967 291.354 41.1686 291.354 37.0203V35.3863C291.354 31.2735 294.056 28.8455 299.445 28.0995H299.447ZM356.4 27.7215H359.208C366.85 27.7215 374.421 37.7079 381.909 57.673C384.337 65.5637 385.557 71.5008 385.557 75.4816V75.8952C385.557 80.0181 382.842 82.4462 377.43 83.1922C373.828 83.1922 371.128 80.622 369.349 75.4791L368.543 75.0655H362.063C349.633 75.7176 343.414 76.6639 343.414 77.9097C342.775 81.3096 340.76 83.3368 337.383 83.9888H334.113C330.736 83.3139 328.711 81.2867 328.046 77.9097V74.6875C328.046 71.9042 332.502 61.2403 341.4 42.6858C346.659 32.7096 351.66 27.7215 356.4 27.7215ZM348.141 60.1367C352.655 59.5201 357.491 59.2004 362.644 59.2004C363.593 59.2004 364.574 59.2131 365.569 59.236C364.1 54.3062 361.197 49.521 356.849 44.8653C353.662 49.3561 350.757 54.4508 348.141 60.1367Z" fill="#027A8F"/>
<path d="M431.432 20.4399C430.638 16.1648 428.648 14.3964 425.523 15.2844C420.945 16.2231 416.371 17.1619 411.794 18.1032C410.789 13.2089 409.8 8.39589 408.739 3.62597C408.292 0.243886 405.433 -0.796363 400.209 0.606705C395.919 1.32219 394.244 3.37478 395.053 6.51583C396.035 11.3035 397.025 16.1166 398.012 20.9322C394.122 21.7288 390.182 22.5382 386.336 23.411C386.257 23.4288 386.257 23.4288 386.178 23.444C384.902 23.5404 383.783 23.992 382.89 24.7532C382.398 25.1845 381.961 25.7427 381.616 26.4759C381.292 27.1762 381.104 27.8765 381.008 28.6122C380.985 31.5934 381.543 33.9048 382.855 35.5921C384.161 37.2539 385.831 37.8755 387.779 37.5584C392.197 36.6526 396.535 35.7595 400.874 34.869C401.622 38.52 402.35 42.0644 403.162 45.6191C403.178 45.6977 403.195 45.7789 403.21 45.8576C403.292 47.0551 403.769 48.1689 404.52 49.1432C404.946 49.6075 405.519 49.9856 406.225 50.3382C406.925 50.663 407.643 50.9294 408.364 50.9472C411.388 51.0436 413.682 50.4067 415.343 49.1001C417.02 47.8746 417.642 46.2026 417.31 44.1754C416.467 40.0753 415.622 35.9498 414.78 31.8497C419.357 30.9109 423.853 29.9874 428.412 28.9675C431.795 28.5209 432.749 25.6513 431.429 20.4374L431.432 20.4399Z" fill="#1DC81D"/>
</svg>
